<?xml version="1.0" encoding="UTF-8" standalone="no"?>
<svg
   xmlns:dc="http://purl.org/dc/elements/1.1/"
   xmlns:cc="http://creativecommons.org/ns#"
   xmlns:rdf="http://www.w3.org/1999/02/22-rdf-syntax-ns#"
   xmlns:svg="http://www.w3.org/2000/svg"
   xmlns="http://www.w3.org/2000/svg"
   xmlns:xlink="http://www.w3.org/1999/xlink"
   xmlns:sodipodi="http://sodipodi.sourceforge.net/DTD/sodipodi-0.dtd"
   xmlns:inkscape="http://www.inkscape.org/namespaces/inkscape"
   inkscape:export-ydpi="38.040001"
   inkscape:export-xdpi="38.040001"
   inkscape:export-filename="C:\Users\dylan\Desktop\Logo.png"
   width="500"
   height="500"
   viewBox="0 0 132.29167 132.29167"
   version="1.1"
   id="svg8"
   inkscape:version="1.0 (4035a4fb49, 2020-05-01)"
   sodipodi:docname="logo.svg">
  <defs
     id="defs2">
    <linearGradient
       id="linearGradient873"
       inkscape:collect="always">
      <stop
         id="stop869"
         offset="0"
         style="stop-color:#d400dc;stop-opacity:1" />
      <stop
         id="stop871"
         offset="1"
         style="stop-color:#0096cc;stop-opacity:1" />
    </linearGradient>
    <filter
       height="1.0768"
       y="-0.0384"
       width="1.0768"
       x="-0.0384"
       id="filter5014"
       style="color-interpolation-filters:sRGB"
       inkscape:collect="always">
      <feGaussianBlur
         id="feGaussianBlur5016"
         stdDeviation="1.905"
         inkscape:collect="always" />
    </filter>
    <filter
       height="1.2122703"
       y="-0.10613517"
       width="1.2760631"
       x="-0.13803157"
       id="filter865"
       style="color-interpolation-filters:sRGB"
       inkscape:collect="always">
      <feGaussianBlur
         id="feGaussianBlur867"
         stdDeviation="14.034935"
         inkscape:collect="always" />
    </filter>
    <linearGradient
       gradientUnits="userSpaceOnUse"
       y2="399.89374"
       x2="368"
       y1="95.809998"
       x1="123.97"
       id="linearGradient875"
       xlink:href="#linearGradient873"
       inkscape:collect="always" />
    <linearGradient
       gradientTransform="translate(7.8701661)"
       y2="399.89374"
       x2="368"
       y1="95.809998"
       x1="123.97"
       gradientUnits="userSpaceOnUse"
       id="linearGradient935"
       xlink:href="#linearGradient873"
       inkscape:collect="always" />
    <linearGradient
       y2="399.89374"
       x2="368"
       y1="95.809998"
       x1="123.97"
       gradientUnits="userSpaceOnUse"
       id="linearGradient938"
       xlink:href="#linearGradient873"
       inkscape:collect="always" />
  </defs>
  <sodipodi:namedview
     id="base"
     pagecolor="#ffffff"
     bordercolor="#666666"
     borderopacity="1.0"
     inkscape:pageopacity="0.0"
     inkscape:pageshadow="2"
     inkscape:zoom="0.56627957"
     inkscape:cx="-30.098184"
     inkscape:cy="305.71348"
     inkscape:document-units="mm"
     inkscape:current-layer="layer2"
     inkscape:document-rotation="0"
     showgrid="false"
     units="px"
     width="49px"
     inkscape:pagecheckerboard="true"
     inkscape:snap-grids="true"
     inkscape:window-width="1920"
     inkscape:window-height="1027"
     inkscape:window-x="-8"
     inkscape:window-y="-8"
     inkscape:window-maximized="1" />
  <metadata
     id="metadata5">
    <rdf:RDF>
      <cc:Work
         rdf:about="">
        <dc:format>image/svg+xml</dc:format>
        <dc:type
           rdf:resource="http://purl.org/dc/dcmitype/StillImage" />
        <dc:title />
      </cc:Work>
    </rdf:RDF>
  </metadata>
  <g
     sodipodi:insensitive="true"
     inkscape:label="Base Circle"
     id="layer1"
     inkscape:groupmode="layer"
     style="display:inline">
    <circle
       sodipodi:insensitive="true"
       inkscape:export-ydpi="38.817287"
       inkscape:export-xdpi="38.817287"
       inkscape:transform-center-y="3.367596"
       inkscape:transform-center-x="6.4946494"
       r="59.53125"
       cy="68.065247"
       cx="66.145836"
       id="circle3352"
       style="display:inline;opacity:0.36;fill:#000000;fill-opacity:1;fill-rule:evenodd;stroke-width:0.256424;filter:url(#filter5014)"
       inkscape:label="Shadow" />
    <circle
       sodipodi:insensitive="true"
       style="display:inline;fill:#ffffff;fill-opacity:1;fill-rule:evenodd;stroke-width:0.256424"
       id="path1917"
       cx="66.145836"
       cy="66.145836"
       r="59.53125"
       inkscape:transform-center-x="6.4946494"
       inkscape:transform-center-y="3.367596"
       inkscape:label="Circle" />
  </g>
  <g
     sodipodi:insensitive="true"
     inkscape:groupmode="layer"
     id="layer2"
     inkscape:label="Base Icon"
     style="display:inline">
    <g
       style="opacity:0.16;filter:url(#filter865)"
       inkscape:label="Shadow"
       transform="matrix(0.22876388,0,0,0.22876388,9.8733503,11.621552)"
       id="g857">
      <path
         d="m 276.85156,84.353516 c -13.61538,0.110465 -27.31212,1.043106 -40.58391,4.242784 -7.30252,1.603758 -14.78923,3.092926 -21.38543,6.781139 -0.47917,0.333407 -1.44801,0.427255 -1.04216,1.193648 1.51249,8.310543 2.83365,16.653473 4.28885,24.973833 3.99561,-1.4731 7.93053,-2.90825 12.01871,-4.18731 5.95539,-1.88654 12.1524,-3.51839 18.34261,-4.76581 1.34656,-0.2678 2.92482,-0.56942 4.36886,-0.8154 10.06079,-1.71438 20.31858,-2.4994 30.51504,-1.8451 13.44021,1.01035 26.80985,5.63418 37.31975,14.20514 2.20747,1.76305 4.17858,3.79061 6.14728,5.80713 4.52244,4.2532 6.88484,10.20501 8.59439,16.04471 2.5475,8.8451 3.56576,18.05263 4.00195,27.22266 0.0444,1.1986 0.10729,2.65016 0.14413,3.94676 0.22711,8.04596 0.0808,16.09545 0.0863,24.14308 -5.52606,-3.39023 -11.50488,-5.95837 -17.50658,-8.37259 -15.87362,-6.09505 -33.27999,-7.3313 -50.0762,-5.41436 -12.26486,1.26648 -24.23209,5.24416 -34.82037,11.56033 -10.47104,6.19538 -19.59025,14.67016 -26.46416,24.71478 -10.15476,14.57446 -15.93485,31.8318 -18.46145,49.31964 -1.23862,8.3401 -1.68452,16.77789 -1.68687,25.20392 10.53972,0 21.07943,0 31.61914,0 0.18487,-13.33197 1.21286,-26.80321 5.09258,-39.62467 1.58962,-5.21986 3.65378,-10.30781 6.3293,-15.06869 0.22935,-0.41107 0.52604,-0.92596 0.79715,-1.37804 4.05022,-6.89182 9.51153,-12.97894 16.10808,-17.5193 7.91798,-5.52208 17.28222,-8.91509 26.89032,-9.81356 21.81822,-2.56162 44.44012,3.5829 62.18882,16.46871 -0.0548,47.4824 0.16862,94.96529 -0.11328,142.44727 -10.48536,2.752 -21.29825,4.07684 -32.11133,4.59961 -1.01996,0.0413 -2.30898,0.10258 -3.43373,0.13434 -3.44269,0.1181 -6.88762,0.12286 -10.33189,0.143 0,9.20052 0,18.40104 0,27.60156 13.52029,0.19858 27.06401,-0.6534 40.4209,-2.78421 12.29661,-1.93224 24.41667,-4.94549 36.2041,-8.94235 -0.006,-74.47929 0.0116,-148.95861 -0.009,-223.43788 -0.0584,-5.34943 -0.0907,-10.72798 -0.98984,-16.01664 -1.9998,-13.303 -6.17267,-26.4851 -13.67662,-37.74584 -5.33144,-8.07663 -12.53382,-14.85172 -20.76351,-19.917293 -13.47598,-8.327838 -29.3058,-12.244202 -45.03066,-12.971888 -4.32762,-0.173709 -8.66129,-0.146929 -12.99155,-0.133113 z"
         id="path843" />
      <path
         d="m 149.56055,88.707031 c -9.29416,1.772352 -18.62476,3.348648 -27.9043,5.197266 0.0598,100.227203 0.0323,200.454423 0.0312,300.681643 12.54645,4.09177 25.37846,7.37594 38.43935,9.32711 7.85228,1.21514 15.78382,1.8055 23.71897,2.11704 15.02545,0.66659 30.32702,0.50904 44.9378,-3.46487 18.91582,-4.874 36.31837,-15.74335 48.64499,-30.94042 8.01415,-9.92877 13.98667,-21.43712 17.83097,-33.58868 4.48154,-14.03343 6.25961,-28.83425 6.06269,-43.53612 0.24647,-0.85065 -0.29251,-0.91582 -1,-0.8125 -10.20248,0 -20.40495,0 -30.60743,0 -0.0181,3.27552 -0.0435,6.55183 -0.20117,9.82422 -0.0625,1.16434 -0.14345,2.58055 -0.23655,3.83991 -0.78712,10.30503 -2.67613,20.6259 -6.62007,30.21758 -0.38768,0.93702 -0.81703,1.92737 -1.19732,2.73798 -4.03698,8.83537 -9.92747,16.86946 -17.43368,23.06904 -10.57876,9.02179 -24.26465,13.90381 -38.02813,15.00565 -5.17668,0.36748 -10.37425,0.30776 -15.56045,0.24063 -12.8047,-0.25909 -25.64299,-1.58707 -38.06442,-4.79439 -0.15537,-4.1319 -0.009,-8.26871 -0.0607,-12.40273 0.002,-43.35013 -0.0111,-86.70026 0.01,-130.05039 15.42991,-11.23617 34.53578,-17.21856 53.60307,-17.08148 0.50615,-0.12863 1.61795,0.34171 1.38869,-0.51422 -0.002,-9.03711 -0.007,-18.07422 -0.0113,-27.11133 -6.14938,-0.0662 -12.31322,0.24777 -18.38676,1.24982 -12.91949,2.05774 -25.43152,6.65523 -36.60347,13.46307 1.4e-4,-37.73047 -0.005,-75.46094 -0.01,-113.191407 -0.91406,0.172526 -1.82812,0.345052 -2.74218,0.517578 z"
         id="path845" />
    </g>
    <g
       style="fill:url(#linearGradient875);fill-opacity:1"
       id="g863"
       transform="matrix(0.22876388,0,0,0.22876388,8.9674145,10.012612)"
       inkscape:label="Logo">
      <path
         d="m 288.47559,84.355469 c -11.64871,-0.0675 -23.32669,0.511119 -34.83771,2.369093 -6.72383,1.086229 -13.36638,2.636464 -19.94968,4.369906 -4.19103,1.159476 -8.26161,2.752855 -12.07785,4.843032 1.45746,8.50687 2.91288,17.01408 4.36719,25.52148 3.94833,-1.39177 7.76223,-2.7442 11.77383,-3.98799 12.1827,-3.84051 24.75936,-6.57485 37.52259,-7.4346 6.92244,-0.50693 13.90502,-0.47022 20.79147,0.45775 0.44791,0.0618 1.06445,0.14746 1.54657,0.22869 13.42463,2.05371 26.33948,8.18295 35.88427,17.92656 2.67084,2.73112 5.18572,5.69623 6.78015,9.20105 1.59804,3.35643 2.73505,7.07662 3.66011,10.56558 0.40818,1.64405 0.77134,3.25346 1.08398,4.84765 2.95907,15.11874 2.52601,30.59977 2.50695,45.92615 -0.002,0.66264 -0.005,1.32528 -0.007,1.98791 -1.32355,-0.49359 -2.4237,-1.40737 -3.71369,-1.97774 -9.99532,-5.25328 -20.70125,-9.33432 -31.89017,-11.09975 -12.06844,-1.94888 -24.43612,-1.77216 -36.50936,0.0385 -15.08442,2.38498 -29.49788,8.88947 -41.21818,18.68743 -8.76179,7.27622 -15.99735,16.34092 -21.28952,26.41812 -8.22095,15.37005 -12.48261,32.627 -13.78783,49.94425 -0.39556,5.03224 -0.52752,10.0797 -0.67719,15.12391 10.55664,0 21.11328,0 31.66993,0 0.28775,-12.14001 1.10072,-24.4982 4.22592,-36.34791 1.24963,-4.73983 2.87083,-9.38677 4.94204,-13.83178 0.31465,-0.64866 0.74773,-1.56944 1.13921,-2.31554 2.43397,-4.74453 5.42471,-9.21778 9.01314,-13.16883 0.34843,-0.38574 0.95155,-1.02472 1.41015,-1.49414 3.12974,-3.19208 6.67832,-5.96503 10.5,-8.28125 0.31137,-0.17424 0.97622,-0.5837 1.43542,-0.83369 2.21782,-1.25538 4.52349,-2.35336 6.8888,-3.30108 0.36893,-0.13442 1.0239,-0.4056 1.41867,-0.54354 5.97428,-2.2326 12.31309,-3.38025 18.67444,-3.67323 16.19103,-0.97513 32.60404,2.6139 46.95245,10.16613 2.27279,1.19033 4.69283,2.58778 6.92858,4.02406 1.31957,0.83777 2.61133,1.71841 3.88914,2.61838 0.0525,40.29906 0.0581,80.59824 -0.0182,120.89726 -0.0226,7.22435 -0.0452,14.4487 -0.0677,21.67305 -4.37061,1.02039 -8.92006,1.9278 -13.25977,2.625 -3.11571,0.49879 -6.30851,0.91944 -9.50976,1.23633 -0.59433,0.0538 -1.55049,0.14741 -2.16824,0.19326 -6.76574,0.5547 -13.46719,0.67868 -20.25976,0.74721 -0.91654,-0.2777 -0.66094,0.60178 -0.68138,1.20875 0,8.83307 0,17.66614 0,26.49922 14.00643,-0.0534 28.04554,-0.81495 41.87296,-3.14027 10.98441,-1.77259 21.78209,-4.55116 32.39479,-7.86915 1.5264,-0.27367 2.70464,-1.83516 2.35725,-3.38121 -0.0158,-75.59706 0.0356,-151.19456 -0.11575,-226.79131 -0.43352,-12.15778 -3.22527,-24.19662 -7.88331,-35.421 -4.26068,-10.01637 -10.61851,-19.2415 -19.02214,-26.22524 -11.37108,-9.593644 -25.6451,-15.277351 -40.23338,-17.681083 -7.41398,-1.22734 -14.94406,-1.640257 -22.45245,-1.545428 z"
         style="fill:url(#linearGradient935);fill-opacity:1"
         id="path859" />
      <path
         d="m 149.55859,88.707031 c -9.3041,1.725574 -18.60766,3.454053 -27.91211,5.177735 0.0131,100.249344 0.0279,200.498694 0.041,300.748044 17.82616,5.639 36.20428,9.93111 54.91985,10.98977 14.54466,0.86993 29.26242,1.30837 43.67995,-1.19156 15.71214,-2.75199 30.86211,-9.20508 43.3346,-19.21147 10.43981,-8.25758 18.93399,-18.8938 24.90011,-30.77978 8.11133,-15.93057 12.02264,-33.77408 12.6533,-51.577 0.12654,-3.05685 0.16532,-6.11661 0.23289,-9.17527 -10.54297,0 -21.08593,0 -31.6289,0 -0.11544,9.76817 -0.65999,19.58235 -2.67383,29.16406 -0.33908,1.5857 -0.75354,3.38046 -1.20356,5.02782 -2.38922,9.00621 -6.33986,17.64131 -11.98785,25.07765 -0.25721,0.33649 -0.7409,0.96977 -1.09908,1.41021 -7.1076,8.98511 -16.75438,15.90959 -27.52423,19.80888 -2.78017,1.02681 -5.63004,1.86175 -8.51731,2.52896 -0.6505,0.14321 -1.60929,0.35236 -2.37891,0.50195 -0.55606,0.10788 -1.45222,0.26989 -2.14025,0.38185 -3.69784,0.62033 -7.47713,0.90188 -11.16248,0.97557 -4.94595,0.14191 -10.00045,0.10441 -14.87891,-0.0957 -3.44012,-0.14755 -6.82901,-0.36203 -10.21296,-0.66465 -5.46849,-0.48096 -10.9036,-1.29707 -16.2929,-2.33535 -0.54956,-0.1167 -1.43747,-0.29316 -2.11676,-0.43278 -1.74221,-0.35732 -3.47854,-0.74439 -5.20941,-1.15316 -0.12958,-41.38776 -0.0343,-82.77578 -0.0597,-124.16367 3.6e-4,-6.13815 7.3e-4,-12.2763 10e-4,-18.41445 10.26506,-7.2102 21.9334,-12.48155 34.23396,-15.03048 6.13236,-1.30013 12.39723,-1.92506 18.66252,-2.00273 1.34151,-0.23376 2.2759,-1.56317 2.13477,-2.90234 -0.0749,-5.19262 -0.0146,-10.40286 -0.0379,-15.60234 -0.001,-3.08438 -0.004,-6.16875 -0.003,-9.25313 -8.55881,0.27737 -17.1879,0.71708 -25.52451,2.82642 -10.29944,2.42156 -20.17096,6.53243 -29.28799,11.88257 -0.49596,0.031 -0.0561,-0.77578 -0.18755,-1.0793 -0.006,-37.31471 -0.014,-74.62943 -0.0195,-111.944141 -0.91146,0.169271 -1.82292,0.338541 -2.73438,0.507812 z"
         style="fill:url(#linearGradient938);fill-opacity:1"
         id="path861" />
    </g>
  </g>
</svg>
