<?xml version="1.0" encoding="UTF-8" standalone="no"?>
<svg
   xmlns:dc="http://purl.org/dc/elements/1.1/"
   xmlns:cc="http://creativecommons.org/ns#"
   xmlns:rdf="http://www.w3.org/1999/02/22-rdf-syntax-ns#"
   xmlns:svg="http://www.w3.org/2000/svg"
   xmlns="http://www.w3.org/2000/svg"
   xmlns:xlink="http://www.w3.org/1999/xlink"
   xmlns:sodipodi="http://sodipodi.sourceforge.net/DTD/sodipodi-0.dtd"
   xmlns:inkscape="http://www.inkscape.org/namespaces/inkscape"
   inkscape:export-ydpi="38.040001"
   inkscape:export-xdpi="38.040001"
   inkscape:export-filename="C:\Users\dylan\Desktop\Logo.png"
   width="500"
   height="500"
   viewBox="0 0 132.29167 132.29167"
   version="1.1"
   id="svg8"
   inkscape:version="1.0 (4035a4fb49, 2020-05-01)"
   sodipodi:docname="logo_tiny.svg">
  <defs
     id="defs2">
    <linearGradient
       id="linearGradient873"
       inkscape:collect="always">
      <stop
         id="stop869"
         offset="0"
         style="stop-color:#d400dc;stop-opacity:1" />
      <stop
         id="stop871"
         offset="1"
         style="stop-color:#0096cc;stop-opacity:1" />
    </linearGradient>
    <linearGradient
       gradientUnits="userSpaceOnUse"
       y2="399.89374"
       x2="368"
       y1="95.809998"
       x1="123.97"
       id="linearGradient875"
       xlink:href="#linearGradient873"
       inkscape:collect="always" />
    <linearGradient
       gradientTransform="translate(7.8701661)"
       y2="399.89374"
       x2="368"
       y1="95.809998"
       x1="123.97"
       gradientUnits="userSpaceOnUse"
       id="linearGradient935"
       xlink:href="#linearGradient873"
       inkscape:collect="always" />
    <linearGradient
       y2="399.89374"
       x2="368"
       y1="95.809998"
       x1="123.97"
       gradientUnits="userSpaceOnUse"
       id="linearGradient938"
       xlink:href="#linearGradient873"
       inkscape:collect="always" />
  </defs>
  <sodipodi:namedview
     id="base"
     pagecolor="#ffffff"
     bordercolor="#666666"
     borderopacity="1.0"
     inkscape:pageopacity="0.0"
     inkscape:pageshadow="2"
     inkscape:zoom="0.80084025"
     inkscape:cx="81.865272"
     inkscape:cy="199.98195"
     inkscape:document-units="mm"
     inkscape:current-layer="svg8"
     inkscape:document-rotation="0"
     showgrid="false"
     units="px"
     width="49px"
     inkscape:pagecheckerboard="true"
     inkscape:snap-grids="true"
     inkscape:window-width="1920"
     inkscape:window-height="1027"
     inkscape:window-x="-8"
     inkscape:window-y="-8"
     inkscape:window-maximized="1" />
  <metadata
     id="metadata5">
    <rdf:RDF>
      <cc:Work
         rdf:about="">
        <dc:format>image/svg+xml</dc:format>
        <dc:type
           rdf:resource="http://purl.org/dc/dcmitype/StillImage" />
        <dc:title></dc:title>
      </cc:Work>
    </rdf:RDF>
  </metadata>
  <g
     transform="matrix(1.5262021,0,0,1.5262021,-34.816947,-34.585549)"
     sodipodi:insensitive="true"
     id="layer2"
     inkscape:label="Base Icon"
     style="display:inline">
    <g
       style="fill:#ffffff;fill-opacity:1"
       id="g863"
       transform="matrix(0.22876388,0,0,0.22876388,8.9674145,10.012612)"
       inkscape:label="Outline">
      <path
         d="m 174.99571,58.112218 c -26.26203,4.871436 -52.52485,9.739522 -78.787385,14.608578 0.01302,113.477194 0.02758,226.954404 0.04067,340.431594 21.700825,7.26451 43.752135,14.0811 66.561905,16.74695 13.64227,1.48451 27.38924,2.08535 41.10836,1.68046 16.10339,-0.59902 32.2573,-3.4682 47.15267,-9.75636 8.88217,-3.68117 17.3032,-8.46432 25.04305,-14.16705 10e-4,8.02752 0.004,16.05505 0.005,24.08257 23.25092,0.26423 46.65827,0.58257 69.69234,-3.08655 14.04433,-2.29269 27.95943,-5.58723 41.36953,-10.37351 10.73515,-4.77464 17.5847,-16.81885 16.43734,-28.47719 -0.0254,-75.42829 0.0127,-150.8571 -0.16039,-226.285 -1.01728,-20.47544 -6.73846,-40.87529 -17.56323,-58.36071 -9.15553,-14.463123 -22.43204,-26.22675 -37.78503,-33.76622 -16.60143,-8.3362 -35.22669,-12.15579 -53.73385,-12.41215 -13.78262,-0.277449 -27.60915,0.195863 -41.26773,2.155225 -9.06307,1.267561 -18.03972,3.162586 -26.84731,5.64304 -7.42994,2.157355 -14.57716,5.261536 -21.22429,9.221464 -9.08081,5.381732 -18.02549,11.012857 -26.6224,17.142098 -0.83956,0.928177 -0.73255,0.0087 -0.6984,-0.768581 0.006,-11.588972 0.01,-23.177946 0.0175,-34.76692 -0.91261,0.169421 -1.82522,0.338841 -2.73783,0.508262 z"
         style="fill:#ffffff;fill-opacity:1;stroke-width:1"
         id="path859" />
    </g>
    <g
       inkscape:label="Logo"
       transform="matrix(0.22876388,0,0,0.22876388,8.9674145,10.012612)"
       id="g971"
       style="fill:url(#linearGradient875);fill-opacity:1">
      <path
         id="path967"
         style="fill:url(#linearGradient935);fill-opacity:1"
         d="m 288.47559,84.355469 c -11.64871,-0.0675 -23.32669,0.511119 -34.83771,2.369093 -6.72383,1.086229 -13.36638,2.636464 -19.94968,4.369906 -4.19103,1.159476 -8.26161,2.752855 -12.07785,4.843032 1.45746,8.50687 2.91288,17.01408 4.36719,25.52148 3.94833,-1.39177 7.76223,-2.7442 11.77383,-3.98799 12.1827,-3.84051 24.75936,-6.57485 37.52259,-7.4346 6.92244,-0.50693 13.90502,-0.47022 20.79147,0.45775 0.44791,0.0618 1.06445,0.14746 1.54657,0.22869 13.42463,2.05371 26.33948,8.18295 35.88427,17.92656 2.67084,2.73112 5.18572,5.69623 6.78015,9.20105 1.59804,3.35643 2.73505,7.07662 3.66011,10.56558 0.40818,1.64405 0.77134,3.25346 1.08398,4.84765 2.95907,15.11874 2.52601,30.59977 2.50695,45.92615 -0.002,0.66264 -0.005,1.32528 -0.007,1.98791 -1.32355,-0.49359 -2.4237,-1.40737 -3.71369,-1.97774 -9.99532,-5.25328 -20.70125,-9.33432 -31.89017,-11.09975 -12.06844,-1.94888 -24.43612,-1.77216 -36.50936,0.0385 -15.08442,2.38498 -29.49788,8.88947 -41.21818,18.68743 -8.76179,7.27622 -15.99735,16.34092 -21.28952,26.41812 -8.22095,15.37005 -12.48261,32.627 -13.78783,49.94425 -0.39556,5.03224 -0.52752,10.0797 -0.67719,15.12391 10.55664,0 21.11328,0 31.66993,0 0.28775,-12.14001 1.10072,-24.4982 4.22592,-36.34791 1.24963,-4.73983 2.87083,-9.38677 4.94204,-13.83178 0.31465,-0.64866 0.74773,-1.56944 1.13921,-2.31554 2.43397,-4.74453 5.42471,-9.21778 9.01314,-13.16883 0.34843,-0.38574 0.95155,-1.02472 1.41015,-1.49414 3.12974,-3.19208 6.67832,-5.96503 10.5,-8.28125 0.31137,-0.17424 0.97622,-0.5837 1.43542,-0.83369 2.21782,-1.25538 4.52349,-2.35336 6.8888,-3.30108 0.36893,-0.13442 1.0239,-0.4056 1.41867,-0.54354 5.97428,-2.2326 12.31309,-3.38025 18.67444,-3.67323 16.19103,-0.97513 32.60404,2.6139 46.95245,10.16613 2.27279,1.19033 4.69283,2.58778 6.92858,4.02406 1.31957,0.83777 2.61133,1.71841 3.88914,2.61838 0.0525,40.29906 0.0581,80.59824 -0.0182,120.89726 -0.0226,7.22435 -0.0452,14.4487 -0.0677,21.67305 -4.37061,1.02039 -8.92006,1.9278 -13.25977,2.625 -3.11571,0.49879 -6.30851,0.91944 -9.50976,1.23633 -0.59433,0.0538 -1.55049,0.14741 -2.16824,0.19326 -6.76574,0.5547 -13.46719,0.67868 -20.25976,0.74721 -0.91654,-0.2777 -0.66094,0.60178 -0.68138,1.20875 0,8.83307 0,17.66614 0,26.49922 14.00643,-0.0534 28.04554,-0.81495 41.87296,-3.14027 10.98441,-1.77259 21.78209,-4.55116 32.39479,-7.86915 1.5264,-0.27367 2.70464,-1.83516 2.35725,-3.38121 -0.0158,-75.59706 0.0356,-151.19456 -0.11575,-226.79131 -0.43352,-12.15778 -3.22527,-24.19662 -7.88331,-35.421 -4.26068,-10.01637 -10.61851,-19.2415 -19.02214,-26.22524 -11.37108,-9.593644 -25.6451,-15.277351 -40.23338,-17.681083 -7.41398,-1.22734 -14.94406,-1.640257 -22.45245,-1.545428 z" />
      <path
         id="path969"
         style="fill:url(#linearGradient938);fill-opacity:1"
         d="m 149.55859,88.707031 c -9.3041,1.725574 -18.60766,3.454053 -27.91211,5.177735 0.0131,100.249344 0.0279,200.498694 0.041,300.748044 17.82616,5.639 36.20428,9.93111 54.91985,10.98977 14.54466,0.86993 29.26242,1.30837 43.67995,-1.19156 15.71214,-2.75199 30.86211,-9.20508 43.3346,-19.21147 10.43981,-8.25758 18.93399,-18.8938 24.90011,-30.77978 8.11133,-15.93057 12.02264,-33.77408 12.6533,-51.577 0.12654,-3.05685 0.16532,-6.11661 0.23289,-9.17527 -10.54297,0 -21.08593,0 -31.6289,0 -0.11544,9.76817 -0.65999,19.58235 -2.67383,29.16406 -0.33908,1.5857 -0.75354,3.38046 -1.20356,5.02782 -2.38922,9.00621 -6.33986,17.64131 -11.98785,25.07765 -0.25721,0.33649 -0.7409,0.96977 -1.09908,1.41021 -7.1076,8.98511 -16.75438,15.90959 -27.52423,19.80888 -2.78017,1.02681 -5.63004,1.86175 -8.51731,2.52896 -0.6505,0.14321 -1.60929,0.35236 -2.37891,0.50195 -0.55606,0.10788 -1.45222,0.26989 -2.14025,0.38185 -3.69784,0.62033 -7.47713,0.90188 -11.16248,0.97557 -4.94595,0.14191 -10.00045,0.10441 -14.87891,-0.0957 -3.44012,-0.14755 -6.82901,-0.36203 -10.21296,-0.66465 -5.46849,-0.48096 -10.9036,-1.29707 -16.2929,-2.33535 -0.54956,-0.1167 -1.43747,-0.29316 -2.11676,-0.43278 -1.74221,-0.35732 -3.47854,-0.74439 -5.20941,-1.15316 -0.12958,-41.38776 -0.0343,-82.77578 -0.0597,-124.16367 3.6e-4,-6.13815 7.3e-4,-12.2763 10e-4,-18.41445 10.26506,-7.2102 21.9334,-12.48155 34.23396,-15.03048 6.13236,-1.30013 12.39723,-1.92506 18.66252,-2.00273 1.34151,-0.23376 2.2759,-1.56317 2.13477,-2.90234 -0.0749,-5.19262 -0.0146,-10.40286 -0.0379,-15.60234 -0.001,-3.08438 -0.004,-6.16875 -0.003,-9.25313 -8.55881,0.27737 -17.1879,0.71708 -25.52451,2.82642 -10.29944,2.42156 -20.17096,6.53243 -29.28799,11.88257 -0.49596,0.031 -0.0561,-0.77578 -0.18755,-1.0793 -0.006,-37.31471 -0.014,-74.62943 -0.0195,-111.944141 -0.91146,0.169271 -1.82292,0.338541 -2.73438,0.507812 z" />
    </g>
  </g>
</svg>
